<?xml version="1.0" encoding="utf-8"?>
<!-- Designed by Vexels.com - 2016 All Rights Reserved - https://vexels.com/terms-and-conditions/  -->

<svg version="1.1" id="Layer_1" xmlns="http://www.w3.org/2000/svg" xmlns:xlink="http://www.w3.org/1999/xlink" x="0px" y="0px"
	 width="1200px" height="1200px" viewBox="0 0 1200 1200" enable-background="new 0 0 1200 1200" xml:space="preserve">
<g>
	<path fill="#FFFFFF" d="M998.947,988.381l-58.35-74.675c-3.165-4.052-8.022-6.422-13.163-6.422H269.372
		c-5.241,0-10.176,2.461-13.333,6.642l-55.154,73.054c-4.485,5.942-4.498,14.137-0.031,20.091l55.155,73.525
		c3.157,4.203,8.104,6.681,13.363,6.681h658.062c5.034,0,9.799-2.27,12.974-6.18l58.346-71.908
		C1003.656,1003.149,1003.738,994.513,998.947,988.381z"/>
	<g>
		<path fill="#FFFFFF" d="M1072.342,466.908L764.477,168.584c-43.932-42.566-102.339-66.014-164.469-66.014
			c-62.143,0-120.549,23.447-164.486,66.018l-307.865,298.32c-90.684,87.874-90.684,230.872,0,318.754l307.869,298.316
			C479.46,1126.561,537.866,1150,600.009,1150c62.13,0,120.541-23.439,164.469-66.022l307.865-298.325
			C1163.026,697.78,1163.026,554.782,1072.342,466.908z"/>
		<path fill="#E30613" d="M736.182,1063.808c-75.212,72.863-197.149,72.863-272.356,0L148.485,758.236
			C73.282,685.36,73.282,567.21,148.489,494.33l315.337-305.56c75.207-72.876,197.145-72.876,272.356,0l315.333,305.56
			c75.198,72.881,75.198,191.03,0,263.906L736.182,1063.808z"/>
	</g>
	<g>
		<path fill="#FFFFFF" d="M1090.471,313.277l-10.193-45.234c-2.097-9.319-9.549-16.74-18.92-18.829
			c-9.358-2.106-18.868,1.526-24.143,9.215c-6.608,9.652-13.246,18.504-19.698,26.267c-1.198,1.44-2.435,2.858-3.706,4.26
			c1.31-7.983,2.755-16.1,4.307-24.131c1.73-8.948,3.317-17.661,4.752-26.146c1.626-9.549,2.439-18.435,2.435-26.419
			c0-6.85-0.757-12.541-2.322-17.436c-2.18-6.776-5.773-12.385-10.72-16.688c-5.254-4.554-11.629-7.365-18.444-8.117
			c-3.585-0.389-7.503-0.364-11.244,0.082c-1.916,0.217-3.87,0.484-5.834,0.805c-0.566,0.086-1.128,0.164-1.673,0.251
			c-2.889-3.126-6.292-5.817-10.175-8.009c-6.439-3.645-13.934-5.046-22.474-4.043c-12.714,1.496-25.225,5.605-37.208,12.243
			c-10.963,6.076-21.484,13.812-31.3,23.015c-4.1,3.849-8.078,7.935-11.901,12.269c-1.293-4.243-3.131-8.1-5.531-11.547
			c-6.193-8.913-16.143-14.279-27.27-14.738c-2.132-0.082-4.341,0.013-6.37,0.242c-2.5,0.277-4.982,0.912-7.646,1.967
			c-0.363,0.117-0.839,0.251-1.431,0.411c-0.476,0.13-1.968,0.506-5.678,1.172c-2.884,0.519-6.971,1.09-12.117,1.687l-6.456,0.757
			c-1.989,0.233-4.195,0.428-6.603,0.592c-0.095,0-0.554,0.022-0.658,0.026l-0.545-0.121c-2.586-0.895-5.168-1.933-7.68-3.118
			c-4.113-1.937-8.268-3.654-12.294-5.077c-6.902-2.452-14.111-3.299-21.13-2.482c-6.491,0.761-13.38,2.564-20.52,5.358
			c-8.044,3.166-15.655,8.165-22.63,14.864c-0.64,0.618-1.271,1.245-1.907,1.894c-4.822-1.448-10.223-1.864-15.422-1.259
			c-2.499,0.273-4.995,0.921-7.572,1.951c-0.376,0.116-0.848,0.255-1.457,0.419c-0.467,0.125-1.951,0.488-5.652,1.163
			c-2.923,0.523-7.019,1.094-12.139,1.695l-6.504,0.757c-1.972,0.229-4.143,0.424-6.534,0.58c-0.109,0.004-0.584,0.026-0.683,0.03
			c-0.186-0.009-0.329-0.03-0.523-0.108c-2.591-0.878-5.181-1.937-7.698-3.127c-4.017-1.89-8.164-3.611-12.329-5.085
			c-6.897-2.444-14.136-3.282-21.082-2.474c-6.513,0.761-13.427,2.569-20.515,5.358c-2.759,1.077-5.466,2.469-8.126,3.978
			c3.896-5.168,6.928-10.794,8.961-16.844c2.331-6.988,3.511-14.189,3.511-21.411c0-9.151-1.95-17.419-5.786-24.537
			c-4.082-7.59-9.834-13.618-17.116-17.925c-6.115-3.611-13.073-5.964-20.637-6.993c-6.357-0.878-13.099-0.922-20.031-0.108
			c-11.036,1.293-20.68,4.277-28.663,8.883c-4.843,2.794-9.103,5.976-12.861,9.432c-1.319-3.836-2.828-7.62-4.549-11.335
			c-7.702-16.584-19.248-30.855-34.302-42.445C423.198,67.84,405,59.568,383.754,54.521c-20.572-4.908-44.343-5.821-70.796-2.733
			c-20.533,2.396-40.214,8.035-58.467,16.744c-17.89,8.541-34.648,19.746-49.801,33.281c-14.932,13.333-28.511,28.961-40.373,46.462
			c-11.702,17.238-21.791,36.222-29.982,56.426c-8.143,20.074-14.478,41.545-18.833,63.83c-4.355,22.314-6.564,45.506-6.556,68.954
			c0.004,13.484,0.718,27.936,2.128,42.929c1.423,15.196,3.749,30.397,6.897,45.169c3.226,15.11,7.469,29.67,12.61,43.254
			c5.523,14.643,12.489,27.668,20.684,38.695c9.055,12.208,19.932,21.748,32.351,28.377c9.769,5.194,20.481,8.07,31.863,8.528
			c0,0,0,0,0.004,0c4.381,0.173,8.917,0.009,13.471-0.532c13.826-1.609,26.79-5.695,38.527-12.152
			c11.092-6.093,21.255-13.838,30.194-23.023c8.671-8.917,16.342-19.11,22.811-30.28c6.197-10.69,11.521-22.012,15.832-33.658
			c4.307-11.629,7.637-23.581,9.907-35.53c2.27-11.892,3.572-23.499,3.888-34.487c0.004-0.225,0.004-0.459,0.004-0.683
			c0-0.697,0.039-1.981,0.099-3.892c0.065-2.27,0.143-4.943,0.216-8.052c0.056-2.885,0.169-6.072,0.303-9.609l0.424-11.023
			c0.117-3.767,0.26-7.698,0.415-11.797c17.765-5.881,33.843-13.233,47.945-21.925c15.248-9.393,28.511-19.941,39.63-31.422
			c-0.873,3.403-1.764,6.867-2.681,10.43c-3.343,12.878-6.569,26.003-9.557,38.99c-3.04,13.125-5.665,26.016-7.793,38.328
			c-2.279,13.302-3.399,24.732-3.399,34.951c0.004,8.286,0.956,16.061,2.833,23.149c2.417,9.099,6.707,16.931,12.714,23.231
			c6.244,6.56,14.154,11.231,23.434,13.864c4.442,1.28,9.298,2.033,14.409,2.24c4.256,0.173,8.844-0.021,13.592-0.584
			c10.439-1.211,21.402-4.303,32.576-9.194c9.89-4.333,19.702-9.479,29.16-15.304c0.303,0.112,0.605,0.225,0.921,0.337
			c6.608,2.361,13.955,3.097,21.938,2.171c3.537-0.415,7.196-1.211,11.08-2.4c3.71,1.319,7.295,2.456,10.724,3.429
			c5.847,1.652,10.833,2.928,15.239,3.884c4.779,1.038,8.692,1.73,11.953,2.097c2.382,0.281,4.16,0.419,5.332,0.471
			c1.704,0.061,3.191,0.004,4.61-0.164c8.489-0.986,17.501-3.04,26.751-6.106c8.826-2.919,17.605-6.521,26.055-10.694
			c4.891-2.422,9.726-5.034,14.435-7.801c5.159,1.094,10.712,1.306,16.463,0.627c3.542-0.407,7.222-1.207,11.097-2.4
			c3.723,1.319,7.317,2.456,10.738,3.434c5.669,1.595,10.798,2.91,15.188,3.861c4.618,1.012,8.632,1.721,11.953,2.102
			c2.417,0.298,4.203,0.433,5.384,0.472c1.7,0.082,3.187,0.022,4.601-0.147c8.437-0.982,17.427-3.032,26.76-6.106
			c8.826-2.919,17.597-6.517,26.077-10.708c6.439-3.191,12.736-6.69,18.798-10.439c5.721,3.866,11.979,6.863,18.682,8.908
			c9.604,2.932,19.728,3.819,29.657,2.664c8.675-1.008,17.359-3.434,25.826-7.2c7.533-3.36,14.85-7.421,21.791-12.104
			c3.966-2.672,7.788-5.514,11.421-8.467c1.492,1.505,3.044,2.936,4.64,4.272c11.378,9.501,26.003,13.678,41.926,11.802
			c11.027-1.289,21.955-5.164,32.473-11.482c9.008-5.393,17.571-11.806,25.463-19.045c7.507-6.893,14.401-14.159,20.494-21.566
			c5.938-7.235,10.617-13.423,14.297-18.907C1090.712,326.046,1091.893,319.569,1090.471,313.277z M238.944,430.911
			c-2.366,5.773-5.22,10.5-8.493,14.063c-0.744,0.804-1.397,1.34-2.006,1.695c-1.445-2.201-3.148-5.492-4.822-10.314
			c-2.513-7.265-4.467-15.758-5.79-25.264c-1.479-10.508-2.564-21.043-3.222-31.27c-0.683-10.452-1.06-20.39-1.12-29.567
			c-0.077-9.609-0.116-17.246-0.121-22.915c0-3.503,0.078-7.057,0.208-10.66c1.427,1.535,2.984,2.993,4.653,4.376
			c5.457,4.536,12.606,8.541,21.795,12.23c3.494,1.406,7.455,2.837,11.944,4.311c-0.065,4.268-0.173,9-0.329,14.154
			c-0.272,8.614-0.882,17.839-1.812,27.435c-0.908,9.397-2.296,18.929-4.125,28.347
			C244.021,416.203,241.747,424.065,238.944,430.911z M372.666,212.421c-3.044,3.256-6.677,6.4-10.855,9.406l5.89-25.173
			c0.311-1.323,0.506-2.681,0.575-4.047c0.165-1.367,0.242-2.854,0.242-4.61c-0.008-8.653-2.331-16.256-6.906-22.586
			c-3.914-5.414-8.904-9.639-14.898-12.58c-5.073-2.469-10.608-3.914-16.498-4.311l-1.678-0.086
			c-3.525-0.139-7.053-0.013-10.439,0.38c-12.878,1.501-24.01,6.145-33.1,13.826c-7.832,6.595-14.254,14.604-19.14,23.824
			c-4.411,8.368-7.78,17.458-10.037,26.972c-2.054,8.619-3.533,17-4.402,24.878c-0.087,0.727-0.16,1.453-0.234,2.158
			c-0.039-0.018-0.074-0.031-0.108-0.052c-2.357-0.964-4.299-1.708-5.894-2.266c-3.014-1.042-6.176-1.634-9.371-1.769
			c-1.717-0.065-3.482-0.009-5.294,0.203c-0.8,0.086-1.578,0.221-2.352,0.363c3.317-9.527,7.239-18.764,11.728-27.569
			c5.769-11.33,12.623-21.518,20.368-30.297c7.399-8.385,15.94-15.421,25.385-20.896c8.934-5.172,18.721-8.329,29.912-9.643
			c16.161-1.881,29.688-1.7,39.392,0.493c8.826,2.002,15.849,4.891,20.329,8.372c3.857,2.984,6.409,6.184,7.797,9.739
			c1.964,4.995,2.91,9.791,2.91,14.647c0.004,4.986-1.016,9.937-3.109,15.157C380.753,202.232,377.311,207.439,372.666,212.421z"/>
		<g>
			<path fill="#042A5E" d="M459.519,170.136c-0.004-14.625-3.01-28.42-9.038-41.381c-6.028-12.943-14.997-23.984-26.889-33.117
				c-11.91-9.146-26.838-15.828-44.754-20.074c-17.929-4.247-38.799-4.982-62.601-2.201c-18.141,2.111-35.257,7.006-51.323,14.66
				c-16.083,7.667-30.959,17.588-44.633,29.774c-13.674,12.182-25.964,26.315-36.862,42.35
				c-10.915,16.048-20.187,33.476-27.832,52.27c-7.65,18.803-13.523,38.687-17.631,59.643c-4.104,20.965-6.149,42.449-6.141,64.469
				c0,12.818,0.683,26.393,2.037,40.737c1.345,14.331,3.507,28.472,6.491,42.406c2.975,13.934,6.837,27.179,11.585,39.721
				c4.752,12.545,10.565,23.43,17.445,32.659c6.872,9.241,14.89,16.277,24.027,21.138c9.147,4.857,19.525,6.599,31.145,5.246
				c10.911-1.271,20.965-4.428,30.181-9.484c9.202-5.042,17.523-11.382,24.961-19.006c7.438-7.633,13.951-16.256,19.551-25.904
				c5.596-9.648,10.34-19.703,14.236-30.189c3.888-10.491,6.867-21.125,8.921-31.88c2.05-10.764,3.218-21.03,3.486-30.825
				c0-0.839,0.039-2.374,0.112-4.614c0.065-2.219,0.134-4.848,0.208-7.853c0.069-3.005,0.177-6.327,0.324-9.972
				c0.13-3.628,0.277-7.269,0.411-10.91c0.281-8.541,0.632-17.921,1.06-28.135c22.245-5.942,41.623-13.994,58.121-24.144
				c16.502-10.145,30.18-21.501,41.018-34.042c10.837-12.554,18.95-25.835,24.325-39.846
				C456.842,197.627,459.528,183.797,459.519,170.136z M404.806,204.533c-3.183,7.905-8.074,15.374-14.656,22.405
				c-6.586,7.049-14.915,13.449-24.974,19.227c-10.067,5.769-22.033,10.517-35.919,14.232l1.907-16.74l12.956-55.245
				c0-0.554,0.03-1.012,0.099-1.362c0.073-0.35,0.104-1.016,0.104-1.998c0-3.477-0.744-6.253-2.231-8.316
				c-1.488-2.05-3.335-3.598-5.531-4.683c-2.197-1.06-4.644-1.678-7.334-1.855c-2.69-0.173-5.31-0.117-7.858,0.19
				c-8.368,0.964-15.378,3.844-21.039,8.619c-5.678,4.77-10.284,10.5-13.821,17.181c-3.537,6.685-6.231,13.907-8.065,21.644
				c-1.842,7.737-3.157,15.101-3.931,22.09c-0.774,6.984-1.198,13.172-1.254,18.535c-0.082,5.375-0.125,8.973-0.125,10.789
				c-2.543-0.264-5.38-0.77-8.489-1.518c-2.69-0.666-5.955-1.574-9.782-2.72c-3.823-1.163-8.078-2.725-12.749-4.692
				c-1.847-0.748-3.377-1.34-4.571-1.756c-1.215-0.424-2.521-0.549-3.935-0.385c-2.132,0.251-3.797,1.042-4.99,2.361
				c-1.216,1.328-2.128,2.962-2.772,4.917c-0.631,1.963-1.021,4.177-1.159,6.629c-0.151,2.452-0.212,4.926-0.208,7.438
				c0,4.74,0.449,8.826,1.371,12.273c0.925,3.442,3.092,6.573,6.495,9.38c3.399,2.815,8.467,5.574,15.196,8.255
				c6.733,2.711,15.979,5.67,27.741,8.891l0.004,9.825c0,6.417-0.147,14.197-0.424,23.352c-0.277,9.164-0.912,18.825-1.898,28.97
				c-0.986,10.15-2.478,20.329-4.463,30.513c-1.972,10.201-4.675,19.434-8.061,27.694c-3.404,8.277-7.641,15.188-12.757,20.723
				c-5.094,5.54-11.257,8.736-18.487,9.588c-6.941,0.804-12.714-1.414-17.324-6.66c-4.605-5.246-8.437-12.251-11.482-21.026
				c-3.044-8.77-5.354-18.708-6.91-29.817c-1.57-11.105-2.707-22.115-3.421-33.039c-0.709-10.924-1.103-21.238-1.172-30.907
				c-0.069-9.682-0.117-17.376-0.117-23.089c-0.004-13.929,1.016-28.368,3.071-43.31c2.045-14.945,5.237-29.605,9.557-43.967
				c4.316-14.37,9.799-28.074,16.455-41.117c6.655-13.034,14.522-24.693,23.59-34.942c9.069-10.267,19.409-18.751,31.024-25.467
				c11.615-6.711,24.58-10.915,38.89-12.589c19.136-2.236,35.007-1.929,47.617,0.917c12.61,2.846,22.669,7.188,30.185,12.987
				c7.516,5.816,12.792,12.623,15.84,20.416c3.057,7.797,4.58,15.607,4.588,23.4C409.588,188.714,407.988,196.641,404.806,204.533z"
				/>
			<path fill="#042A5E" d="M489.289,197.912c5.955,5.085,15.17,6.902,27.647,5.449c7.226-0.839,13.423-2.651,18.586-5.402
				c5.168-2.768,9.462-6.093,12.853-9.981c3.408-3.87,5.877-8.134,7.438-12.774c1.561-4.64,2.343-9.328,2.339-14.072
				c0-5.155-0.96-9.501-2.872-13.043c-1.92-3.533-4.502-6.266-7.762-8.186c-3.26-1.925-7.088-3.183-11.482-3.775
				c-4.398-0.61-9.064-0.614-14.02-0.039c-7.931,0.921-14.556,2.919-19.875,5.976c-5.315,3.057-9.574,6.552-12.749,10.478
				c-3.191,3.918-5.492,7.983-6.906,12.191c-1.419,4.212-2.123,7.914-2.119,11.122C480.367,185.466,483.338,192.831,489.289,197.912
				z"/>
			<path fill="#042A5E" d="M1058.543,270.144c-7.083,10.305-14.093,19.62-21.043,27.967c-2.971,3.55-6.115,7.018-9.449,10.4
				c-3.326,3.386-6.656,6.456-9.99,9.22c-3.33,2.755-6.616,5.051-9.882,6.902c-3.261,1.842-6.374,2.932-9.349,3.287
				c-3.97,0.458-6.556-1.081-7.762-4.644c-1.211-3.546-1.803-8.593-1.808-15.14c0-7.663,0.696-15.862,2.123-24.606
				c1.406-8.731,2.962-17.493,4.662-26.258c1.7-8.757,3.26-17.302,4.671-25.618c1.418-8.316,2.114-15.832,2.11-22.526
				c0-4.316-0.389-7.68-1.163-10.089c-0.779-2.422-1.886-4.242-3.299-5.479c-1.423-1.224-3.049-1.942-4.883-2.141
				c-1.851-0.199-3.831-0.186-5.95,0.065c-1.561,0.182-3.17,0.406-4.787,0.662c-1.63,0.263-3.226,0.476-4.779,0.666
				c-1.851,0.221-3.65,0.32-5.423,0.315c-1.786,0-3.507-0.246-5.211-0.752c-1.695-0.484-3.118-1.444-4.246-2.841
				c-1.138-1.401-2.309-2.837-3.525-4.29c-1.194-1.471-2.72-2.716-4.558-3.758c-1.847-1.034-4.398-1.371-7.655-0.986
				c-9.773,1.146-19.378,4.32-28.797,9.531c-9.423,5.207-18.384,11.797-26.881,19.75c-8.502,7.957-16.329,17.03-23.486,27.197
				c-7.153,10.189-13.346,20.831-18.582,31.958c-5.241,11.131-9.354,22.379-12.325,33.739c-2.149,8.225-3.503,16.217-4.095,23.975
				c-0.727,0.61-1.445,1.172-2.162,1.829c-3.33,3.049-6.807,6.275-10.418,9.687c-3.615,3.42-7.503,6.699-11.685,9.829
				c-4.182,3.135-8.71,5.859-13.605,8.182c-4.887,2.309-10.305,3.805-16.26,4.515c-2.694,0.302-5.843,0.19-9.458-0.372
				c-3.606-0.554-7.044-1.215-10.305-2.033c-3.265-0.8-6.093-1.553-8.506-2.249c-2.413-0.683-3.685-1.025-3.827-1.003l1.06-4.316
				c1.28-1.829,3.797-5.284,7.542-10.387c3.758-5.107,8.147-11.131,13.185-18.067c5.016-6.915,10.34-14.332,15.936-22.237
				c5.587-7.884,10.967-15.56,16.139-23.002c5.172-7.42,9.73-14.158,13.704-20.187c3.962-6.041,6.789-10.685,8.498-13.964
				c5.955-2.227,10.197-4.346,12.753-6.396c2.551-2.037,3.969-3.629,4.259-4.779c0.834-4.415,1.263-8.515,1.263-12.277
				c-0.004-5.847-1.103-10.353-3.3-13.505c-2.192-3.165-5.773-4.454-10.733-3.875c-0.428,0.048-0.995,0.221-1.7,0.511
				c-0.713,0.29-1.95,0.683-3.719,1.167c-1.777,0.489-4.368,1.025-7.762,1.639c-3.399,0.601-7.935,1.237-13.596,1.903
				c-1.989,0.229-4.143,0.476-6.487,0.761c-2.34,0.272-4.922,0.497-7.754,0.692c-3.689,0.285-7.269-0.169-10.733-1.367
				c-3.477-1.194-6.876-2.578-10.219-4.139c-3.321-1.553-6.685-2.949-10.084-4.143c-3.404-1.215-6.807-1.617-10.206-1.215
				c-4.536,0.532-9.462,1.838-14.777,3.914c-5.31,2.08-10.414,5.462-15.3,10.158c-4.878,4.679-9.315,11.001-13.272,18.997
				c-1.314,2.642-2.486,5.6-3.598,8.714c0.078-1.176,0.195-2.392,0.195-3.507c0-5.847-1.103-10.357-3.304-13.519
				c-2.197-3.152-5.769-4.45-10.733-3.87c-0.428,0.048-0.995,0.225-1.695,0.515c-0.709,0.294-1.955,0.679-3.728,1.155
				c-1.769,0.497-4.355,1.038-7.758,1.643c-3.399,0.614-7.935,1.25-13.596,1.907c-1.989,0.225-4.143,0.489-6.474,0.761
				c-2.348,0.272-4.93,0.502-7.767,0.692c-3.685,0.29-7.265-0.16-10.729-1.363c-3.477-1.198-6.88-2.573-10.21-4.143
				c-3.339-1.553-6.699-2.936-10.098-4.143c-3.399-1.216-6.798-1.609-10.206-1.211c-4.536,0.528-9.453,1.825-14.772,3.918
				c-5.315,2.08-10.414,5.457-15.3,10.15c-4.887,4.674-9.315,11.001-13.28,18.993c-3.962,8.001-7.006,18.18-9.129,30.54
				c-0.29,1.717-0.497,3.373-0.635,4.991c-0.143,1.613-0.216,3.135-0.216,4.519c0,3.351,0.462,5.968,1.384,7.888
				c0.93,1.912,2.517,2.742,4.787,2.474c2.413-0.281,5.103-2.175,8.074-5.648c2.975-3.481,6.66-8.822,11.049-16.031
				c1.985-3.291,3.797-5.873,5.418-7.732c1.626-1.868,3.473-3.338,5.535-4.407c2.037-1.081,4.567-1.864,7.533-2.348
				c2.984-0.488,6.733-0.995,11.269-1.522c1.834-0.208,3.537-0.203,5.103,0.026c1.557,0.234,3.079,0.653,4.571,1.241
				c1.487,0.601,3.148,1.276,4.986,2.041c1.847,0.761,4.048,1.548,6.599,2.357l-49.502,71.242v-0.031
				c-4.684,4.307-10.072,9.471-16.157,15.469c-6.089,6.015-12.325,11.862-18.708,17.553c-6.361,5.691-12.675,10.647-18.902,14.855
				c-6.232,4.208-11.905,6.607-16.995,7.204c-4.398,0.523-7.304-0.99-8.723-4.519c-1.418-3.52-2.127-8.415-2.132-14.69
				c0-6.413,0.701-13.704,2.123-21.89c1.41-8.178,3.179-16.593,5.302-25.285c2.132-8.679,4.389-17.367,6.793-26.085
				c2.409-8.71,4.675-16.853,6.798-24.416c2.128-7.563,3.888-14.318,5.306-20.265c1.423-5.946,2.123-10.452,2.123-13.518
				c0-3.62-1.064-6.396-3.191-8.316c-2.123-1.898-6.162-2.517-12.117-1.816c-3.261,0.38-6.906,1.193-10.945,2.426
				c-4.039,1.241-7.931,2.893-11.685,4.921c-3.758,2.045-7.131,4.527-10.093,7.443c-2.988,2.932-4.969,6.262-5.95,9.998
				c-2.552,10.755-5.496,22.522-8.813,35.309c-3.334,12.796-6.478,25.605-9.449,38.419c-2.98,12.813-5.488,25.173-7.538,37.048
				c-2.054,11.871-3.079,22.198-3.079,30.976c0.004,6.27,0.679,11.944,2.028,17.008c1.354,5.069,3.576,9.233,6.708,12.485
				c3.114,3.278,7.187,5.613,12.217,7.044c5.029,1.431,11.231,1.717,18.604,0.86c8.212-0.956,16.896-3.429,26.038-7.421
				c9.142-4,18.098-8.696,26.881-14.119c4.151-2.556,8.13-5.198,12.009-7.914c0.359,0.488,0.653,1.02,1.055,1.483
				c2.054,2.262,4.64,3.944,7.762,5.038c3.118,1.112,6.807,1.41,11.053,0.913c3.961-0.463,8.645-1.847,14.024-4.156
				c6.236,2.495,11.975,4.458,17.225,5.942c5.241,1.47,9.856,2.651,13.817,3.507c3.97,0.865,7.157,1.436,9.566,1.708
				c2.409,0.268,3.896,0.376,4.463,0.303c6.941-0.8,14.353-2.504,22.215-5.086c7.858-2.59,15.585-5.769,23.162-9.505
				c7.572-3.732,14.837-7.893,21.787-12.472c0.259-0.173,0.501-0.346,0.761-0.523c1.492,1.077,3.105,2.015,4.973,2.681
				c3.118,1.094,6.811,1.397,11.058,0.899c3.961-0.463,8.635-1.842,14.024-4.147c6.236,2.482,11.971,4.458,17.212,5.929
				c5.25,1.483,9.86,2.651,13.83,3.507c3.961,0.878,7.157,1.436,9.562,1.708c2.409,0.285,3.896,0.389,4.463,0.311
				c6.941-0.809,14.353-2.504,22.215-5.094c7.862-2.595,15.568-5.76,23.162-9.501c7.576-3.737,14.837-7.888,21.778-12.468
				c3.559-2.344,6.876-4.713,9.99-7.118c1.859,2.586,3.896,4.939,6.175,7.006c4.952,4.515,10.664,7.749,17.108,9.713
				c6.452,1.959,13.073,2.547,19.875,1.747c6.383-0.74,12.757-2.529,19.132-5.358c6.37-2.837,12.506-6.236,18.379-10.201
				c5.881-3.953,11.296-8.238,16.251-12.878c4.965-4.61,9.147-9.069,12.545-13.367c4.532,10.764,9.921,18.729,16.161,23.927
				c6.236,5.194,14.033,7.248,23.383,6.154c7.788-0.913,15.585-3.706,23.378-8.377c7.797-4.666,15.088-10.12,21.895-16.351
				c6.803-6.223,12.926-12.658,18.375-19.291c5.448-6.612,9.803-12.351,13.068-17.19L1058.543,270.144z M709.358,333.649
				c-0.441,0.018-0.848-0.065-1.31-0.004c-3.542,0.415-6.941,1.682-10.201,3.801c-3.261,2.127-6.552,4.709-9.877,7.732
				c-3.326,3.044-6.807,6.275-10.414,9.687c-3.619,3.416-7.503,6.694-11.68,9.834c-4.182,3.135-8.713,5.864-13.604,8.173
				c-4.887,2.313-10.305,3.81-16.26,4.51c-2.694,0.32-5.851,0.199-9.453-0.359c-3.619-0.558-7.057-1.22-10.318-2.041
				c-3.261-0.8-6.089-1.548-8.502-2.249c-2.409-0.688-3.68-1.025-3.822-1.012l1.059-4.299c1.276-1.838,3.788-5.293,7.538-10.396
				c3.753-5.107,8.151-11.122,13.181-18.05c5.025-6.932,10.34-14.336,15.936-22.254c5.592-7.879,10.976-15.555,16.134-22.989
				c5.177-7.425,9.747-14.167,13.709-20.204c3.966-6.033,6.802-10.69,8.498-13.951c5.955-2.231,10.206-4.364,12.753-6.405
				c0.688-0.549,1.285-1.064,1.799-1.544c-0.727,3.109-1.414,6.366-2.006,9.821c-0.286,1.713-0.493,3.373-0.636,4.995
				c-0.147,1.617-0.212,3.131-0.212,4.519c0,3.347,0.458,5.976,1.384,7.883c0.917,1.92,2.508,2.742,4.783,2.474
				c2.409-0.277,5.108-2.171,8.074-5.648c2.975-3.489,6.66-8.822,11.049-16.022c1.981-3.304,3.784-5.881,5.418-7.741
				c1.626-1.868,3.468-3.325,5.535-4.411c2.041-1.064,4.562-1.859,7.538-2.335c2.975-0.493,6.729-0.999,11.265-1.531
				c1.842-0.212,3.542-0.203,5.103,0.022c1.556,0.242,3.083,0.666,4.571,1.25c1.484,0.601,3.153,1.28,4.995,2.033
				c1.834,0.761,4.043,1.544,6.586,2.366L709.358,333.649z M940.363,282.473c-0.566,4.536-1.799,10.249-3.723,17.168
				c-1.903,6.91-4.424,13.687-7.529,20.316c-3.127,6.638-6.803,12.437-11.053,17.389c-4.251,4.952-8.999,7.741-14.241,8.346
				c-3.269,0.389-5.951-0.104-8.074-1.457c-2.132-1.358-3.831-3.248-5.098-5.678c-1.276-2.421-2.167-5.25-2.66-8.463
				c-0.502-3.218-0.748-6.564-0.748-10.054c-0.004-6.132,0.805-12.766,2.439-19.932c1.622-7.153,3.922-14.37,6.902-21.61
				c2.966-7.243,6.508-14.245,10.625-20.995c4.1-6.742,8.602-12.839,13.484-18.292c4.883-5.449,10.093-9.925,15.625-13.423
				c5.522-3.503,11.192-5.592,16.999-6.27L940.363,282.473z"/>
		</g>
	</g>
	<g>
		<path fill="#D5CCC6" d="M1016.846,739.995c0,0-0.234-2.564-0.631-6.703C1016.574,737.435,1016.846,739.995,1016.846,739.995z
			 M954.24,665.125c0,0,36.538-9.929,45.645-12.381c7.568-2.058,14.275,59.842,16.329,80.548
			c-1.747-19.378-6.054-74.887,1.107-80.755c8.671-7.088,34.682,38.565,34.682,38.565s-20.619-36.831-29.554-59.319
			c-2.794-6.993-4.865-14.201-6.522-20.827c-4.744,8.528-7.447,13.622-7.447,13.622l-8.039-6.375
			C998.169,643.845,954.24,665.125,954.24,665.125z"/>
		<path fill="#FFEBC9" d="M237.894,565.939C280.04,547.132,273.017,553,324.267,531.3c50.938-21.527,25.778-29.065,79.488-38.613
			c53.373-9.479,90.689-7.896,98.057-8.528c7.347-0.649,145.035-22.206,153.857-25.35c8.818-3.152,157.502,7.749,189.547,7.291
			c31.919-0.45,45.243,10.171,73.91,14.682c28.55,4.515,19.534,21.783,42.168,19.728c22.608-2.05,40.667-15.399,69.04,10.145
			c28.295,25.415,78.377,83.597,87.83,112.952c9.466,29.337-3.269,60.902-41.571,97.535
			c-38.479,36.801-109.79,82.057-162.112,109.007c-52.685,27.123-189.248,49.874-243.451,53.554
			c-54.601,3.719-107.866,5.669-176.478,8.502c-69.171,2.807-144.23-2.318-162.212-12.554
			c-18.016-10.279-127.33-13.151-156.901-42.03c-29.645-28.966-58.956-53.122-58.818-95.169
			C116.795,700.413,106.2,624.795,237.894,565.939z"/>
		<path fill="#E30613" d="M171.357,643.265c35.465-65.235,111.239-87.164,149.645-99.178c38.254-11.944,155.924-67.6,209.43-72.223
			c53.169-4.593,108.372-3.793,134.66-6.054c26.206-2.292-55.254-3.611,79.614,6.967c132.723,10.414,182.865,25.739,182.865,25.739
			s69.499,26.877,76.695,26.228c7.192-0.683,38.388,12.031,46.977,27.612c8.575,15.547,32.088,38.894,39.331,59.994
			c7.23,21.052-21.13,44.676-27.577,53.507c-6.426,8.848-29.882,30.388-45.563,37.472c-15.711,7.096-2.777,50.32-144.256,87.467
			c-143.988,37.801-326.607,59.764-379.43,51.392c-53.139-8.45-165.74,3.654-213.067-17.025
			C233.115,804.326,95.116,783.465,171.357,643.265z"/>
		<path fill="#FBC892" d="M197.927,723.528c23.166,21.83,1.064,11.966,96.311,26.457c94.218,14.327,45.779,43.293,101.409,43.457
			c55.28,0.156,33.999-6.539,129.454-13.54c94.399-6.95,182.627,4.303,202.464,2.201c19.78-2.098,54.324-11.586,86.52-20.836
			c32.083-9.203,34.263-9.423,61.369-23.871c27.028-14.409,59.289-17.782,82.1-28.784c22.751-10.975,50.67-59.89,56.301-69.066
			c5.604-9.211,57.014-31.47,9.843-58.476c-47.414-27.123-104.432-62.225-154.22-60.577c-50.108,1.643-10.162-16.463-141.99-16.299
			c-133.929,0.208-151.301,7.629-193.399,17.298c-42.319,9.709-7.002-2.331-80.314,19.062
			c-73.966,21.579-25.272-0.683-73.966,21.579c-48.967,22.396-77.91,37.065-102.05,54.324
			c-24.234,17.319-51.128,31.893-51.128,31.893s-74.987,16.428-24.299,62.761C252.714,757.207,197.927,723.528,197.927,723.528z"/>
		<path fill="#AE0F0A" d="M483.269,741.154c-1.405-15.897-24.74-26.578-52.218-23.815c-27.547,2.763-48.802,17.99-47.387,33.982
			c1.414,15.979,24.961,26.634,52.503,23.75C463.614,772.247,484.666,757.042,483.269,741.154z"/>
		<path fill="#AE0F0A" d="M997.014,645.38c-1.155-13.285-20.061-22.267-42.289-20.1c-22.284,2.188-39.431,14.768-38.255,28.113
			c1.172,13.341,20.208,22.327,42.492,20.079C981.165,671.21,998.195,658.656,997.014,645.38z"/>
		<path fill="#AE0F0A" d="M677.971,743.195c-1.475-16.809-25.856-28.074-54.575-25.147c-28.818,2.924-51.025,18.997-49.524,35.928
			c1.479,16.909,26.12,28.157,54.912,25.112C657.49,776.07,679.467,760.009,677.971,743.195z"/>
		<path fill="#AE0F0A" d="M770.186,635.005c-0.977-10.95-16.736-18.345-35.279-16.571c-18.578,1.803-32.875,12.143-31.902,23.127
			c0.973,10.945,16.827,18.362,35.404,16.524C756.91,656.26,771.141,645.929,770.186,635.005z"/>
		<path fill="#AE0F0A" d="M978.561,572.94c-0.956-10.798-16.321-18.155-34.384-16.463c-18.12,1.704-32.044,11.853-31.093,22.686
			c0.956,10.825,16.433,18.18,34.544,16.468C965.674,593.884,979.508,583.73,978.561,572.94z"/>
		<path fill="#AE0F0A" d="M500.913,563.444c-1.665-18.816-29.247-31.703-61.723-28.788c-32.602,2.924-57.775,20.649-56.097,39.621
			c1.669,18.915,29.532,31.772,62.126,28.728C477.695,599.96,502.582,582.259,500.913,563.444z"/>
		<path fill="#AE0F0A" d="M689.249,555.599c-1.354-15.304-23.595-25.834-49.732-23.456c-26.25,2.357-46.471,16.813-45.126,32.213
			c1.371,15.443,23.798,25.925,50.021,23.46C670.554,585.352,690.589,570.955,689.249,555.599z"/>
		<path fill="#AE0F0A" d="M394.215,666.012c-2.084-23.698-37.057-39.746-78.317-35.841c-41.437,3.909-73.46,26.462-71.35,50.367
			c2.128,23.897,37.558,39.937,78.969,35.807C364.761,712.249,396.321,689.688,394.215,666.012z"/>
		<path fill="#F49F7A" d="M416.4,572.17c0.761-2.607-0.069-5.522-1.881-6.482c-1.816-0.96-3.896,0.368-4.657,2.979
			c-0.77,2.625,0.06,5.518,1.881,6.5C413.541,576.123,415.63,574.783,416.4,572.17z"/>
		<path fill="#F49F7A" d="M452.773,560.136c1.172-3.992-1.479-9.142-5.92-11.508c-4.428-2.391-8.973-1.085-10.141,2.885
			c-1.159,3.983,1.492,9.142,5.925,11.507C447.086,565.412,451.605,564.105,452.773,560.136z"/>
		<path fill="#F49F7A" d="M471.978,574.813c1.046-3.602-0.394-7.723-3.213-9.224c-2.811-1.505-5.95,0.156-6.997,3.745
			c-1.059,3.594,0.394,7.719,3.205,9.246C467.796,580.071,470.923,578.393,471.978,574.813z"/>
		<path fill="#F49F7A" d="M642.315,742.975c2.897-0.579,4.913-3.403,4.493-6.309c-0.411-2.915-3.105-4.805-6.003-4.238
			c-2.889,0.575-4.904,3.399-4.485,6.322C636.737,741.66,639.422,743.554,642.315,742.975z"/>
		<path fill="#F49F7A" d="M423.548,742.119c2.962-0.58,5.029-3.443,4.61-6.396c-0.441-2.949-3.191-4.869-6.162-4.277
			c-2.962,0.575-5.029,3.425-4.601,6.387C417.822,740.769,420.564,742.694,423.548,742.119z"/>
		<path fill="#F49F7A" d="M626.976,762.123c2.906-0.579,4.917-3.408,4.493-6.34c-0.419-2.915-3.109-4.796-6.007-4.221
			c-2.893,0.579-4.913,3.425-4.493,6.335C621.402,760.813,624.087,762.699,626.976,762.123z"/>
		<path fill="#F49F7A" d="M599.36,759.477c2.915-0.575,4.947-3.421,4.515-6.344c-0.415-2.897-3.114-4.805-6.02-4.229
			c-2.924,0.575-4.938,3.408-4.523,6.335C593.755,758.171,596.462,760.061,599.36,759.477z"/>
		<path fill="#F49F7A" d="M443.277,751.507c2.975-0.593,5.025-3.447,4.618-6.396c-0.449-2.954-3.195-4.86-6.154-4.281
			c-2.954,0.597-5.034,3.443-4.606,6.387C437.564,750.158,440.323,752.091,443.277,751.507z"/>
		<path fill="#F49F7A" d="M641.891,553.908c2.893-0.523,4.908-3.343,4.502-6.245c-0.424-2.91-3.105-4.843-6.011-4.294
			c-2.885,0.532-4.908,3.33-4.48,6.266C636.317,552.551,639.003,554.449,641.891,553.908z"/>
		<path fill="#F49F7A" d="M626.059,570.566c2.893-0.54,4.913-3.334,4.493-6.262c-0.411-2.911-3.105-4.822-6.024-4.273
			c-2.88,0.541-4.895,3.334-4.484,6.258C620.468,569.204,623.153,571.12,626.059,570.566z"/>
		<path fill="#F49F7A" d="M726.094,645.034c2.871-0.536,4.848-3.343,4.446-6.236c-0.424-2.906-3.075-4.787-5.946-4.229
			c-2.867,0.536-4.852,3.339-4.433,6.24C720.567,643.702,723.222,645.604,726.094,645.034z"/>
		<path fill="#F49F7A" d="M364.234,673.242c4.67-0.908,7.9-5.353,7.226-9.968c-0.675-4.589-4.991-7.594-9.631-6.708
			c-4.671,0.882-7.879,5.319-7.226,9.929C355.269,671.115,359.576,674.112,364.234,673.242z"/>
		<g>
			<path fill="#AE0F0A" d="M629.61,645.604c-2.167-24.468-37.8-41.134-79.826-37.147c-42.216,4-74.84,27.305-72.656,51.989
				c2.175,24.689,38.306,41.251,80.53,37.039C599.646,693.282,631.768,670.081,629.61,645.604z"/>
			<path fill="#F49F7A" d="M516.97,662.349c5.431-1.06,9.22-6.309,8.433-11.763c-0.779-5.436-5.821-9.004-11.27-7.931
				c-5.453,1.042-9.224,6.288-8.441,11.724C506.47,659.832,511.512,663.396,516.97,662.349z"/>
			<path fill="#F49F7A" d="M560.193,671.054c5.41-1.068,9.168-6.297,8.381-11.741c-0.761-5.397-5.79-8.947-11.218-7.905
				c-5.414,1.029-9.181,6.279-8.407,11.706C549.732,668.537,554.77,672.101,560.193,671.054z"/>
			<path fill="#F49F7A" d="M575.325,640.519c4.113-0.791,6.963-4.766,6.379-8.887c-0.588-4.121-4.411-6.824-8.528-6.037
				c-4.104,0.787-6.954,4.766-6.378,8.887C567.406,638.603,571.212,641.293,575.325,640.519z"/>
		</g>
		<g>
			<path fill="#AE0F0A" d="M890.234,682.691c-2.136-24.278-36.97-40.68-77.97-36.637c-41.225,4.039-73.028,27.192-70.879,51.695
				c2.167,24.46,37.463,40.866,78.654,36.577C861.017,730.062,892.362,706.943,890.234,682.691z"/>
			<path fill="#F49F7A" d="M785.274,704.431c3.81-0.752,6.474-4.485,5.912-8.381c-0.545-3.892-4.091-6.417-7.914-5.648
				c-3.823,0.748-6.483,4.511-5.929,8.381C777.892,702.679,781.438,705.196,785.274,704.431z"/>
			<path fill="#F49F7A" d="M814.659,686.679c3.823-0.757,6.452-4.489,5.894-8.381c-0.549-3.87-4.095-6.4-7.897-5.661
				c-3.801,0.77-6.452,4.519-5.894,8.385C807.316,684.905,810.845,687.414,814.659,686.679z"/>
			<path fill="#F49F7A" d="M844.031,697.304c2.889-0.566,4.891-3.412,4.467-6.344c-0.433-2.945-3.105-4.86-5.998-4.299
				c-2.876,0.566-4.874,3.412-4.454,6.353C838.469,695.95,841.16,697.888,844.031,697.304z"/>
		</g>
		<path fill="#F49F7A" d="M662.29,565.857c2.188-0.406,3.714-2.547,3.399-4.744c-0.307-2.214-2.348-3.676-4.537-3.274
			c-2.205,0.424-3.719,2.556-3.403,4.766C658.061,564.815,660.106,566.28,662.29,565.857z"/>
		<path fill="#F49F7A" d="M745.796,637.115c2.171-0.415,3.676-2.543,3.365-4.735c-0.312-2.21-2.331-3.65-4.498-3.222
			c-2.192,0.407-3.697,2.521-3.377,4.735C741.601,636.086,743.608,637.526,745.796,637.115z"/>
		<g>
			<path fill="#AE0F0A" d="M848.398,564.512c-1.427-16.316-24.823-27.499-52.344-24.974c-27.633,2.552-48.919,17.904-47.483,34.341
				c1.453,16.342,25.069,27.491,52.685,24.861C828.77,596.111,849.839,580.776,848.398,564.512z"/>
			<path fill="#F49F7A" d="M773.931,586.895c3.252-0.64,5.51-3.806,5.038-7.101c-0.48-3.278-3.49-5.44-6.733-4.826
				c-3.243,0.601-5.488,3.792-5.021,7.07C767.678,585.339,770.713,587.497,773.931,586.895z"/>
			<path fill="#F49F7A" d="M804.791,564.715c3.226-0.605,5.475-3.753,5.012-7.023c-0.484-3.291-3.473-5.453-6.72-4.852
				c-3.217,0.61-5.462,3.758-4.995,7.049C798.555,563.18,801.564,565.355,804.791,564.715z"/>
			<path fill="#F49F7A" d="M830.928,570.402c3.222-0.618,5.462-3.762,4.977-7.044c-0.463-3.269-3.451-5.44-6.66-4.813
				c-3.239,0.605-5.457,3.758-4.999,7.049C824.718,568.867,827.71,571.003,830.928,570.402z"/>
		</g>
		<path fill="#F49F7A" d="M954.768,587.808c2.115-0.394,3.572-2.491,3.252-4.67c-0.298-2.158-2.262-3.594-4.389-3.183
			c-2.119,0.398-3.576,2.504-3.287,4.666C950.66,586.8,952.627,588.227,954.768,587.808z"/>
		<path fill="#F49F7A" d="M956,653.415c2.128-0.419,3.59-2.521,3.283-4.696c-0.312-2.162-2.279-3.585-4.398-3.174
			c-2.115,0.407-3.576,2.499-3.282,4.688C951.922,652.416,953.881,653.826,956,653.415z"/>
	</g>
	<polygon fill="#042A5E" points="927.437,1070.572 269.376,1070.572 214.221,997.047 269.376,923.989 927.437,923.989 
		985.783,998.664 	"/>
	<g>
		<path fill="#FFFFFF" d="M435.363,994.56c0,10.089-2.876,17.817-8.615,23.179c-5.743,5.362-14.037,8.043-24.874,8.043h-17.359
			v-61.278h19.24c9.998,0,17.773,2.642,23.305,7.922C432.591,977.712,435.363,985.09,435.363,994.56z M421.861,994.893
			c0-13.159-5.812-19.741-17.436-19.741h-6.919v39.902h5.579C415.6,1015.054,421.861,1008.334,421.861,994.893z"/>
		<path fill="#FFFFFF" d="M488.502,1025.783H453.21v-61.278h35.292v10.647h-22.297v13.454h20.745v10.651h-20.745v15.797h22.297
			V1025.783z"/>
		<path fill="#FFFFFF" d="M506.44,1025.783v-61.278h12.991v50.549h24.857v10.729H506.44z"/>
		<path fill="#FFFFFF" d="M560.085,1025.783v-61.278h12.986v61.278H560.085z"/>
		<path fill="#FFFFFF" d="M628.606,964.505h13.116l-20.827,61.278h-14.167l-20.792-61.278h13.12l11.529,36.464
			c0.635,2.153,1.302,4.662,1.989,7.533c0.683,2.858,1.107,4.848,1.276,5.968c0.307-2.569,1.354-7.071,3.144-13.501L628.606,964.505
			z"/>
		<path fill="#FFFFFF" d="M689.876,1025.783h-35.288v-61.278h35.288v10.647h-22.293v13.454h20.745v10.651h-20.745v15.797h22.293
			V1025.783z"/>
		<path fill="#FFFFFF" d="M720.809,1002.271v23.512h-12.991v-61.278h17.852c8.325,0,14.487,1.518,18.487,4.554
			c3.996,3.027,5.994,7.629,5.994,13.808c0,3.602-0.995,6.811-2.984,9.617c-1.985,2.811-4.792,5.008-8.42,6.604
			c9.22,13.773,15.227,22.673,18.02,26.695h-14.413l-14.63-23.512H720.809z M720.809,991.71h4.186c4.117,0,7.14-0.683,9.099-2.058
			c1.959-1.367,2.936-3.516,2.936-6.448c0-2.91-1.003-4.973-3.001-6.21c-1.994-1.224-5.09-1.842-9.28-1.842h-3.94V991.71z"/>
		<path fill="#FFFFFF" d="M788.708,989.743l12.779-25.238h14.003l-20.334,37.433v23.845h-12.904v-23.426l-20.329-37.852h14.076
			L788.708,989.743z"/>
	</g>
</g>
</svg>
