<?xml version="1.0" encoding="utf-8"?>
<!-- Generator: Adobe Illustrator 17.0.0, SVG Export Plug-In . SVG Version: 6.00 Build 0)  -->
<!DOCTYPE svg PUBLIC "-//W3C//DTD SVG 1.1//EN" "http://www.w3.org/Graphics/SVG/1.1/DTD/svg11.dtd">
<svg version="1.1" id="Capa_1" xmlns="http://www.w3.org/2000/svg" xmlns:xlink="http://www.w3.org/1999/xlink" x="0px" y="0px"
	 width="512px" height="512px" viewBox="0 0 512 512" enable-background="new 0 0 512 512" xml:space="preserve">
<path fill="none" stroke="#FFFFFF" stroke-width="29" stroke-linejoin="round" stroke-miterlimit="10" d="M254.701,15
	c-85.835,0-163.122,37.199-216.453,96.308l216.453,385.234l216.573-385.113C417.944,52.199,340.656,15,254.701,15z M134.316,135.386
	c0-26.605,21.549-48.154,48.154-48.154s48.154,21.549,48.154,48.154s-21.549,48.154-48.154,48.154S134.316,161.991,134.316,135.386z
	 M254.701,328.002c-26.605,0-48.154-21.549-48.154-48.154c0-26.605,21.549-48.154,48.154-48.154s48.154,21.549,48.154,48.154
	C302.855,306.453,281.306,328.002,254.701,328.002z"/>
</svg>
