<?xml version="1.0" encoding="utf-8"?>
<!-- Generator: Adobe Illustrator 23.0.6, SVG Export Plug-In . SVG Version: 6.00 Build 0)  -->
<svg version="1.1" id="Capa_1" xmlns="http://www.w3.org/2000/svg" xmlns:xlink="http://www.w3.org/1999/xlink" x="0px" y="0px"
	 viewBox="0 0 34 34" style="enable-background:new 0 0 34 34;" xml:space="preserve">
<style type="text/css">
	.st0{fill:#FFFFFF;}
</style>
<title>Group 15</title>
<desc>Created with Sketch.</desc>
<g id="Page-1">
	<g id="HOME-CTA-DESKTOP-Copy-2" transform="translate(-713.000000, -442.000000)">
		<g id="Group-2" transform="translate(491.000000, 425.000000)">
			<g id="Group-23-Copy" transform="translate(200.000000, 0.000000)">
				<g id="Group-13-Copy" transform="translate(23.000000, 18.000000)">
					<g id="Group-4">
						<g id="Group">
							<g id="Group-15">
								<g id="Oval-2">
									<path class="st0" d="M16,9.3c-2.4,0-4.4-2-4.4-4.4s2-4.4,4.4-4.4s4.3,2,4.3,4.4S18.4,9.3,16,9.3z M16,2.3
										c-1.5,0-2.6,1.2-2.6,2.6s1.2,2.6,2.6,2.6c1.5,0,2.7-1.2,2.7-2.6S17.5,2.3,16,2.3z"/>
								</g>
								<g id="Line-4">
									<path class="st0" d="M26,6.8h-6c-0.5,0-0.8-0.4-0.8-0.9s0.4-0.9,0.8-0.9h6c0.5,0,0.8,0.4,0.8,0.9S26.5,6.8,26,6.8z"/>
								</g>
								<g id="Line-4-Copy">
									<path class="st0" d="M12,6.5H6c-0.5,0-0.9-0.4-0.9-0.9S5.5,4.8,6,4.8h6c0.5,0,0.9,0.4,0.9,0.9S12.5,6.5,12,6.5z"/>
								</g>
								<g id="Rectangle-14">
									<path class="st0" d="M19.5,25.4h-7c-2.2,0-4-1.8-4-4v-9c0-2.2,1.8-4,4-4h7c2.2,0,4,1.8,4,4v9
										C23.5,23.6,21.7,25.4,19.5,25.4z M12.5,10.1c-1.3,0-2.3,1-2.3,2.3v9c0,1.3,1,2.3,2.3,2.3h7c1.3,0,2.3-1,2.3-2.3v-9
										c0-1.3-1-2.3-2.3-2.3H12.5z"/>
								</g>
								<g id="Rectangle-15">
									<path class="st0" d="M16,31.4c-1.9,0-3.5-1.6-3.5-3.5v-8c0-1.9,1.6-3.5,3.5-3.5s3.5,1.6,3.5,3.5v8
										C19.5,29.9,17.9,31.4,16,31.4z M16,18.1c-1,0-1.8,0.8-1.8,1.8v8c0,1,0.8,1.8,1.8,1.8c1,0,1.8-0.8,1.8-1.8v-8
										C17.8,18.9,17,18.1,16,18.1z"/>
								</g>
							</g>
						</g>
					</g>
				</g>
			</g>
		</g>
	</g>
</g>
</svg>
