<?xml version="1.0" encoding="utf-8"?>
<!-- Generator: Adobe Illustrator 17.0.0, SVG Export Plug-In . SVG Version: 6.00 Build 0)  -->
<!DOCTYPE svg PUBLIC "-//W3C//DTD SVG 1.1//EN" "http://www.w3.org/Graphics/SVG/1.1/DTD/svg11.dtd">
<svg version="1.1" id="Layer_1" xmlns="http://www.w3.org/2000/svg" xmlns:xlink="http://www.w3.org/1999/xlink" x="0px" y="0px"
	 width="283.46px" height="283.46px" viewBox="0 0 283.46 283.46" enable-background="new 0 0 283.46 283.46" xml:space="preserve">
<g>
	<path fill="#FFFFFF" d="M140.98,83.488c-34.995,0-63.991,28.496-63.991,63.991s28.496,63.991,63.991,63.991
		s63.991-28.996,63.991-63.991S175.975,83.488,140.98,83.488z M140.98,188.473c-22.497,0-40.994-18.497-40.994-40.994
		s18.497-40.994,40.994-40.994s40.994,18.497,40.994,40.994S163.477,188.473,140.98,188.473z"/>
	<circle fill="#FFFFFF" cx="207.471" cy="81.988" r="14.498"/>
	<path fill="#FFFFFF" d="M244.965,44.494c-12.998-13.498-31.496-20.497-52.493-20.497H89.487c-43.494,0-72.49,28.996-72.49,72.49
		v102.486c0,21.497,6.999,39.994,20.997,53.492c13.498,12.998,31.496,19.497,51.993,19.497h101.986
		c21.497,0,39.494-6.999,52.493-19.497c13.498-12.998,20.497-31.496,20.497-52.993V96.486
		C264.963,75.489,257.964,57.492,244.965,44.494z M242.966,199.472c0,15.498-5.499,27.996-14.498,36.495
		c-8.999,8.499-21.497,12.998-36.495,12.998H89.987c-14.998,0-27.496-4.499-36.495-12.998c-8.999-8.999-13.498-21.497-13.498-36.995
		V96.486c0-14.998,4.499-27.496,13.498-36.495c8.499-8.499,21.497-12.998,36.495-12.998h102.985
		c14.998,0,27.496,4.499,36.495,13.498c8.499,8.999,13.498,21.497,13.498,35.995V199.472L242.966,199.472z"/>
</g>
</svg>
